<svg width="45" height="37" viewBox="0 0 45 37" fill="none" xmlns="http://www.w3.org/2000/svg">
<path fill-rule="evenodd" clip-rule="evenodd" d="M41.1066 0H3.42555C2.51703 0 1.64573 0.371001 1.00332 1.03141C0.3609 1.69179 0 2.58748 0 3.52143V33.4536C0 34.3875 0.3609 35.2832 1.00332 35.9436C1.64573 36.604 2.51703 36.975 3.42555 36.975H6.85109H10.2766H34.2555H37.681H41.1066C42.0151 36.975 42.8864 36.604 43.5288 35.9436C44.1712 35.2832 44.5321 34.3875 44.5321 33.4536V3.52143C44.5321 2.58748 44.1712 1.69179 43.5288 1.03141C42.8864 0.371001 42.0151 0 41.1066 0ZM33.2043 21.1286H39.3938C39.8481 21.1286 40.2836 20.9431 40.6049 20.6129C40.9262 20.2826 41.1066 19.8348 41.1066 19.3679C41.1066 18.9009 40.9262 18.4531 40.6049 18.1228C40.2836 17.7926 39.8481 17.6071 39.3938 17.6071H33.2043C32.7832 15.7079 31.6962 14.0347 30.1511 12.907C28.6058 11.7795 26.7107 11.2765 24.8277 11.4943C22.9447 11.7122 21.2057 12.6354 19.9428 14.0879C18.6801 15.5402 17.9819 17.4199 17.9819 19.3679C17.9819 21.3158 18.6801 23.1955 19.9428 24.6478C21.2057 26.1003 22.9447 27.0235 24.8277 27.2414C26.7107 27.4592 28.6058 26.9562 30.1511 25.8287C31.6962 24.701 32.7832 23.0278 33.2043 21.1286Z" fill="#E4EFFF"/>
</svg>
