<svg width="183" height="36" viewBox="0 0 183 36" fill="none" xmlns="http://www.w3.org/2000/svg">
<path d="M51.376 9.26549V9.7592C50.832 9.77566 50.416 9.84149 50.128 9.95669C49.856 10.0554 49.672 10.2529 49.576 10.5491C49.48 10.8289 49.432 11.2733 49.432 11.8822V24.4225C49.432 24.9327 49.464 25.3112 49.528 25.5581C49.608 25.8049 49.752 25.9695 49.96 26.0518C50.184 26.1341 50.512 26.1752 50.944 26.1752H52.12C52.664 26.1752 53.176 26.0435 53.656 25.7802C54.136 25.5169 54.568 25.1466 54.952 24.6694C55.336 24.1757 55.656 23.5914 55.912 22.9167C56.168 22.2419 56.36 21.4931 56.488 20.6703H57.04C56.992 21.2298 56.968 21.9539 56.968 22.8426C56.968 23.2211 56.976 23.7725 56.992 24.4966C57.008 25.2207 57.056 25.9695 57.136 26.743C56.32 26.7101 55.4 26.6936 54.376 26.6936C53.352 26.6771 52.44 26.6689 51.64 26.6689C51.24 26.6689 50.728 26.6689 50.104 26.6689C49.48 26.6689 48.808 26.6771 48.088 26.6936C47.368 26.6936 46.64 26.7018 45.904 26.7183C45.168 26.7183 44.472 26.7265 43.816 26.743V26.2493C44.328 26.2163 44.712 26.1505 44.968 26.0518C45.224 25.953 45.392 25.7555 45.472 25.4593C45.568 25.1631 45.616 24.7187 45.616 24.1263V11.8822C45.616 11.2733 45.568 10.8289 45.472 10.5491C45.392 10.2529 45.216 10.0554 44.944 9.95669C44.688 9.84149 44.312 9.77566 43.816 9.7592V9.26549C44.216 9.28195 44.752 9.2984 45.424 9.31486C46.112 9.33132 46.84 9.33955 47.608 9.33955C48.312 9.33955 49 9.33132 49.672 9.31486C50.36 9.2984 50.928 9.28195 51.376 9.26549ZM61.3679 7.61155C62.0399 7.61155 62.5679 7.78435 62.9519 8.12995C63.3519 8.45909 63.5519 8.91989 63.5519 9.51235C63.5519 10.1048 63.3519 10.5738 62.9519 10.9194C62.5679 11.2486 62.0399 11.4131 61.3679 11.4131C60.6959 11.4131 60.1599 11.2486 59.7599 10.9194C59.3759 10.5738 59.1839 10.1048 59.1839 9.51235C59.1839 8.91989 59.3759 8.45909 59.7599 8.12995C60.1599 7.78435 60.6959 7.61155 61.3679 7.61155ZM63.2399 13.7089V24.4472C63.2399 25.1384 63.3519 25.6074 63.5759 25.8543C63.8159 26.1011 64.2159 26.2246 64.7759 26.2246V26.743C64.4879 26.7265 64.0399 26.7101 63.4319 26.6936C62.8239 26.6607 62.2079 26.6442 61.5839 26.6442C60.9599 26.6442 60.3279 26.6607 59.6879 26.6936C59.0479 26.7101 58.5679 26.7265 58.2479 26.743V26.2246C58.8079 26.2246 59.1999 26.1011 59.4239 25.8543C59.6639 25.6074 59.7839 25.1384 59.7839 24.4472V16.6712C59.7839 15.9306 59.6719 15.3875 59.4479 15.0419C59.2399 14.6799 58.8399 14.4989 58.2479 14.4989V13.9805C58.7599 14.0298 59.2559 14.0545 59.7359 14.0545C60.4079 14.0545 61.0319 14.0298 61.6079 13.9805C62.1999 13.9146 62.7439 13.8241 63.2399 13.7089ZM70.7142 7.41406V24.4472C70.7142 25.1384 70.8262 25.6074 71.0502 25.8543C71.2902 26.1011 71.6902 26.2246 72.2502 26.2246V26.743C71.9462 26.7265 71.4902 26.7101 70.8822 26.6936C70.2742 26.6607 69.6582 26.6442 69.0342 26.6442C68.4102 26.6442 67.7782 26.6607 67.1382 26.6936C66.5142 26.7101 66.0422 26.7265 65.7222 26.743V26.2246C66.2822 26.2246 66.6742 26.1011 66.8982 25.8543C67.1382 25.6074 67.2582 25.1384 67.2582 24.4472V10.3763C67.2582 9.63578 67.1462 9.09269 66.9222 8.74709C66.7142 8.38503 66.3142 8.204 65.7222 8.204V7.68561C66.2342 7.73498 66.7302 7.75966 67.2102 7.75966C67.8662 7.75966 68.4902 7.73498 69.0822 7.68561C69.6742 7.61978 70.2182 7.52926 70.7142 7.41406ZM79.2289 13.6349C80.3969 13.6349 81.4209 13.857 82.3009 14.3014C83.1809 14.7457 83.8689 15.4616 84.3649 16.449C84.8609 17.4365 85.1089 18.7448 85.1089 20.3741C85.1089 22.0033 84.8609 23.3117 84.3649 24.2991C83.8689 25.2701 83.1809 25.9777 82.3009 26.4221C81.4209 26.8664 80.3969 27.0886 79.2289 27.0886C78.0929 27.0886 77.0769 26.8664 76.1809 26.4221C75.3009 25.9777 74.6049 25.2701 74.0929 24.2991C73.5969 23.3117 73.3489 22.0033 73.3489 20.3741C73.3489 18.7448 73.5969 17.4365 74.0929 16.449C74.6049 15.4616 75.3009 14.7457 76.1809 14.3014C77.0769 13.857 78.0929 13.6349 79.2289 13.6349ZM79.2289 14.1286C78.5889 14.1286 78.0529 14.6223 77.6209 15.6097C77.1889 16.5807 76.9729 18.1688 76.9729 20.3741C76.9729 22.5793 77.1889 24.1674 77.6209 25.1384C78.0529 26.1094 78.5889 26.5949 79.2289 26.5949C79.8849 26.5949 80.4209 26.1094 80.8369 25.1384C81.2689 24.1674 81.4849 22.5793 81.4849 20.3741C81.4849 18.1688 81.2689 16.5807 80.8369 15.6097C80.4209 14.6223 79.8849 14.1286 79.2289 14.1286ZM94.8393 13.6349C96.0873 13.6349 97.1193 14.1615 97.9353 15.2147C98.7673 16.2515 99.1833 17.8561 99.1833 20.0285C99.1833 21.74 98.9273 23.1142 98.4153 24.151C97.9193 25.1878 97.2553 25.9366 96.4233 26.3974C95.5913 26.8582 94.6793 27.0886 93.6873 27.0886C93.0313 27.0886 92.4233 26.9734 91.8633 26.743C91.3033 26.5126 90.8233 26.1341 90.4233 25.6074L90.7593 25.484C91.0473 25.8461 91.3833 26.1176 91.7673 26.2986C92.1673 26.4797 92.5593 26.5702 92.9433 26.5702C93.8233 26.5702 94.4793 26.06 94.9113 25.0397C95.3433 24.0193 95.5593 22.4641 95.5593 20.3741C95.5593 18.9587 95.4713 17.8397 95.2953 17.0168C95.1353 16.1775 94.8953 15.585 94.5753 15.2394C94.2553 14.8774 93.8713 14.6963 93.4233 14.6963C92.8633 14.6963 92.3513 14.935 91.8873 15.4122C91.4233 15.873 91.1593 16.5231 91.0953 17.3624L90.9753 16.4984C91.2633 15.5603 91.7513 14.8527 92.4393 14.3754C93.1273 13.8817 93.9273 13.6349 94.8393 13.6349ZM91.1673 7.43875V26.2493C90.7673 26.1834 90.3593 26.1834 89.9433 26.2493C89.5273 26.3151 89.1433 26.4303 88.7913 26.5949C88.4393 26.743 88.1433 26.924 87.9033 27.1379L87.5433 26.9158C87.6073 26.6854 87.6473 26.455 87.6633 26.2246C87.6953 25.9942 87.7113 25.7638 87.7113 25.5334V10.401C87.7113 9.66046 87.5993 9.11738 87.3753 8.77178C87.1673 8.40972 86.7673 8.22869 86.1753 8.22869V7.71029C86.6873 7.75966 87.1833 7.78435 87.6633 7.78435C88.3193 7.78435 88.9433 7.75966 89.5353 7.71029C90.1273 7.64446 90.6713 7.55395 91.1673 7.43875ZM103.982 26.9158C103.262 26.9158 102.662 26.7759 102.182 26.4961C101.702 26.2163 101.35 25.8461 101.126 25.3853C100.902 24.908 100.79 24.3896 100.79 23.8301C100.79 23.1224 100.942 22.5464 101.246 22.1021C101.566 21.6577 101.974 21.2957 102.47 21.0159C102.966 20.7361 103.486 20.5057 104.03 20.3247C104.59 20.1437 105.118 19.9709 105.614 19.8063C106.126 19.6253 106.534 19.4195 106.838 19.1891C107.158 18.9423 107.318 18.6296 107.318 18.2511V16.3256C107.318 15.8977 107.246 15.5192 107.102 15.1901C106.974 14.8445 106.766 14.5811 106.478 14.4001C106.206 14.2191 105.846 14.1286 105.398 14.1286C105.078 14.1286 104.758 14.1779 104.438 14.2767C104.118 14.359 103.854 14.5071 103.646 14.721C104.094 14.8856 104.438 15.1407 104.678 15.4863C104.934 15.8154 105.062 16.1939 105.062 16.6218C105.062 17.1814 104.87 17.6257 104.486 17.9549C104.118 18.284 103.678 18.4486 103.166 18.4486C102.59 18.4486 102.15 18.2675 101.846 17.9055C101.558 17.527 101.414 17.0744 101.414 16.5478C101.414 16.0705 101.526 15.6755 101.75 15.3629C101.99 15.0502 102.318 14.7539 102.734 14.4742C103.182 14.2109 103.718 14.0051 104.342 13.857C104.982 13.7089 105.67 13.6349 106.406 13.6349C107.142 13.6349 107.806 13.7171 108.398 13.8817C108.99 14.0298 109.486 14.3096 109.886 14.721C110.254 15.0995 110.494 15.5686 110.606 16.1281C110.718 16.6712 110.774 17.3624 110.774 18.2017V24.9162C110.774 25.3277 110.814 25.6157 110.894 25.7802C110.974 25.9283 111.11 26.0024 111.302 26.0024C111.446 26.0024 111.582 25.9613 111.71 25.879C111.854 25.7967 112.006 25.6979 112.166 25.5827L112.406 26.0024C112.07 26.2986 111.678 26.529 111.23 26.6936C110.798 26.8417 110.31 26.9158 109.766 26.9158C109.174 26.9158 108.702 26.8335 108.35 26.6689C107.998 26.4879 107.742 26.2493 107.582 25.953C107.438 25.6568 107.366 25.3112 107.366 24.9162C106.982 25.5416 106.518 26.0353 105.974 26.3974C105.43 26.743 104.766 26.9158 103.982 26.9158ZM105.686 25.3359C106.006 25.3359 106.294 25.2618 106.55 25.1137C106.822 24.9491 107.078 24.6858 107.318 24.3238V19.2632C107.174 19.5101 106.974 19.7322 106.718 19.9297C106.462 20.1272 106.19 20.3329 105.902 20.5469C105.614 20.7443 105.334 20.9665 105.062 21.2134C104.806 21.4602 104.598 21.7647 104.438 22.1267C104.278 22.4888 104.198 22.9249 104.198 23.4351C104.198 24.0769 104.334 24.5542 104.606 24.8669C104.878 25.1795 105.238 25.3359 105.686 25.3359ZM133.358 9.26549V9.7592C133.006 9.89086 132.63 10.1789 132.23 10.6232C131.846 11.0675 131.486 11.7587 131.15 12.6968L126.086 26.7923C125.958 26.7759 125.822 26.7677 125.678 26.7677C125.534 26.7677 125.39 26.7677 125.246 26.7677C125.118 26.7677 124.982 26.7677 124.838 26.7677C124.694 26.7677 124.558 26.7759 124.43 26.7923L118.31 11.3391C118.086 10.7466 117.838 10.3434 117.566 10.1295C117.294 9.89909 117.038 9.77566 116.798 9.7592V9.26549C117.278 9.28195 117.838 9.2984 118.478 9.31486C119.134 9.33132 119.79 9.33955 120.446 9.33955C121.182 9.33955 121.87 9.33132 122.51 9.31486C123.166 9.2984 123.694 9.28195 124.094 9.26549V9.7592C123.582 9.77566 123.182 9.84149 122.894 9.95669C122.606 10.0554 122.446 10.2529 122.414 10.5491C122.382 10.8289 122.478 11.2568 122.702 11.8328L127.07 23.2623L126.566 23.8794L129.878 14.6963C130.31 13.4621 130.534 12.4911 130.55 11.7834C130.566 11.0758 130.398 10.5656 130.046 10.2529C129.694 9.94023 129.19 9.77566 128.534 9.7592V9.26549C129.078 9.28195 129.59 9.2984 130.07 9.31486C130.55 9.33132 131.038 9.33955 131.534 9.33955C131.886 9.33955 132.214 9.33132 132.518 9.31486C132.838 9.2984 133.118 9.28195 133.358 9.26549ZM135.271 26.9158C134.551 26.9158 133.951 26.7759 133.471 26.4961C132.991 26.2163 132.639 25.8461 132.415 25.3853C132.191 24.908 132.079 24.3896 132.079 23.8301C132.079 23.1224 132.231 22.5464 132.535 22.1021C132.855 21.6577 133.263 21.2957 133.759 21.0159C134.255 20.7361 134.775 20.5057 135.319 20.3247C135.879 20.1437 136.407 19.9709 136.903 19.8063C137.415 19.6253 137.823 19.4195 138.127 19.1891C138.447 18.9423 138.607 18.6296 138.607 18.2511V16.3256C138.607 15.8977 138.535 15.5192 138.391 15.1901C138.263 14.8445 138.055 14.5811 137.767 14.4001C137.495 14.2191 137.135 14.1286 136.687 14.1286C136.367 14.1286 136.047 14.1779 135.727 14.2767C135.407 14.359 135.143 14.5071 134.935 14.721C135.383 14.8856 135.727 15.1407 135.967 15.4863C136.223 15.8154 136.351 16.1939 136.351 16.6218C136.351 17.1814 136.159 17.6257 135.775 17.9549C135.407 18.284 134.967 18.4486 134.455 18.4486C133.879 18.4486 133.439 18.2675 133.135 17.9055C132.847 17.527 132.703 17.0744 132.703 16.5478C132.703 16.0705 132.815 15.6755 133.039 15.3629C133.279 15.0502 133.607 14.7539 134.023 14.4742C134.471 14.2109 135.007 14.0051 135.631 13.857C136.271 13.7089 136.959 13.6349 137.695 13.6349C138.431 13.6349 139.095 13.7171 139.687 13.8817C140.279 14.0298 140.775 14.3096 141.175 14.721C141.543 15.0995 141.783 15.5686 141.895 16.1281C142.007 16.6712 142.063 17.3624 142.063 18.2017V24.9162C142.063 25.3277 142.103 25.6157 142.183 25.7802C142.263 25.9283 142.399 26.0024 142.591 26.0024C142.735 26.0024 142.871 25.9613 142.999 25.879C143.143 25.7967 143.295 25.6979 143.455 25.5827L143.695 26.0024C143.359 26.2986 142.967 26.529 142.519 26.6936C142.087 26.8417 141.599 26.9158 141.055 26.9158C140.463 26.9158 139.991 26.8335 139.639 26.6689C139.287 26.4879 139.031 26.2493 138.871 25.953C138.727 25.6568 138.655 25.3112 138.655 24.9162C138.271 25.5416 137.807 26.0353 137.263 26.3974C136.719 26.743 136.055 26.9158 135.271 26.9158ZM136.975 25.3359C137.295 25.3359 137.583 25.2618 137.839 25.1137C138.111 24.9491 138.367 24.6858 138.607 24.3238V19.2632C138.463 19.5101 138.263 19.7322 138.007 19.9297C137.751 20.1272 137.479 20.3329 137.191 20.5469C136.903 20.7443 136.623 20.9665 136.351 21.2134C136.095 21.4602 135.887 21.7647 135.727 22.1267C135.567 22.4888 135.487 22.9249 135.487 23.4351C135.487 24.0769 135.623 24.5542 135.895 24.8669C136.167 25.1795 136.527 25.3359 136.975 25.3359ZM149.277 7.41406V24.4472C149.277 25.1384 149.389 25.6074 149.613 25.8543C149.853 26.1011 150.253 26.2246 150.813 26.2246V26.743C150.509 26.7265 150.053 26.7101 149.445 26.6936C148.837 26.6607 148.221 26.6442 147.597 26.6442C146.973 26.6442 146.341 26.6607 145.701 26.6936C145.077 26.7101 144.605 26.7265 144.285 26.743V26.2246C144.845 26.2246 145.237 26.1011 145.461 25.8543C145.701 25.6074 145.821 25.1384 145.821 24.4472V10.3763C145.821 9.63578 145.709 9.09269 145.485 8.74709C145.277 8.38503 144.877 8.204 144.285 8.204V7.68561C144.797 7.73498 145.293 7.75966 145.773 7.75966C146.429 7.75966 147.053 7.73498 147.645 7.68561C148.237 7.61978 148.781 7.52926 149.277 7.41406ZM156.706 9.93201V13.9805H159.538V14.4742H156.706V24.4472C156.706 24.9409 156.794 25.2947 156.97 25.5087C157.146 25.7062 157.41 25.8049 157.762 25.8049C158.05 25.8049 158.338 25.6979 158.626 25.484C158.914 25.2536 159.17 24.8669 159.394 24.3238L159.802 24.5459C159.546 25.2865 159.154 25.8954 158.626 26.3727C158.114 26.8499 157.41 27.0886 156.514 27.0886C155.986 27.0886 155.522 27.0145 155.122 26.8664C154.722 26.7347 154.386 26.529 154.114 26.2493C153.762 25.8872 153.53 25.4429 153.418 24.9162C153.306 24.3731 153.25 23.6737 153.25 22.8179V14.4742H151.234V13.9805H153.25V10.7219C153.922 10.7219 154.538 10.6643 155.098 10.5491C155.674 10.4175 156.21 10.2118 156.706 9.93201ZM166.37 13.6349C167.778 13.6349 168.882 14.0627 169.682 14.9185C170.482 15.7743 170.882 17.1731 170.882 19.1151H162.986L162.938 18.6461H167.858C167.874 17.8397 167.826 17.0991 167.714 16.4243C167.602 15.7331 167.426 15.1818 167.186 14.7704C166.946 14.359 166.626 14.1533 166.226 14.1533C165.666 14.1533 165.186 14.5153 164.786 15.2394C164.402 15.9635 164.17 17.1649 164.09 18.8435L164.162 18.9917C164.146 19.1891 164.13 19.3949 164.114 19.6088C164.114 19.8227 164.114 20.0449 164.114 20.2753C164.114 21.4109 164.266 22.3325 164.57 23.0401C164.89 23.7478 165.29 24.2662 165.77 24.5953C166.25 24.908 166.738 25.0643 167.234 25.0643C167.57 25.0643 167.914 25.015 168.266 24.9162C168.634 24.801 169.002 24.6035 169.37 24.3238C169.738 24.0275 170.082 23.6161 170.402 23.0895L170.834 23.2376C170.642 23.863 170.338 24.4719 169.922 25.0643C169.506 25.6568 168.978 26.1423 168.338 26.5208C167.698 26.8993 166.93 27.0886 166.034 27.0886C164.946 27.0886 163.986 26.8499 163.154 26.3727C162.322 25.8954 161.666 25.1713 161.186 24.2003C160.722 23.2294 160.49 21.9951 160.49 20.4975C160.49 18.967 160.738 17.6915 161.234 16.6712C161.746 15.6509 162.442 14.8938 163.322 14.4001C164.218 13.8899 165.234 13.6349 166.37 13.6349ZM180.387 13.6349C180.899 13.6349 181.315 13.7501 181.635 13.9805C181.955 14.1944 182.187 14.4742 182.331 14.8198C182.491 15.1654 182.571 15.5274 182.571 15.9059C182.571 16.5149 182.395 17.0168 182.043 17.4118C181.707 17.7903 181.259 17.9795 180.699 17.9795C180.139 17.9795 179.699 17.8397 179.379 17.5599C179.075 17.2637 178.923 16.8769 178.923 16.3997C178.923 15.9389 179.019 15.5603 179.211 15.2641C179.419 14.9514 179.675 14.6881 179.979 14.4742C179.755 14.4083 179.531 14.4166 179.307 14.4989C179.003 14.5482 178.715 14.6799 178.443 14.8938C178.171 15.0913 177.939 15.3464 177.747 15.6591C177.555 15.9553 177.403 16.2845 177.291 16.6465C177.179 16.9921 177.123 17.3295 177.123 17.6586V24.2003C177.123 24.9903 177.307 25.5251 177.675 25.8049C178.059 26.0847 178.627 26.2246 179.379 26.2246V26.743C179.011 26.7265 178.475 26.7101 177.771 26.6936C177.067 26.6607 176.331 26.6442 175.563 26.6442C174.923 26.6442 174.275 26.6607 173.619 26.6936C172.963 26.7101 172.467 26.7265 172.131 26.743V26.2246C172.691 26.2246 173.083 26.1011 173.307 25.8543C173.547 25.6074 173.667 25.1384 173.667 24.4472V16.6712C173.667 15.9306 173.555 15.3875 173.331 15.0419C173.123 14.6799 172.723 14.4989 172.131 14.4989V13.9805C172.643 14.0298 173.139 14.0545 173.619 14.0545C174.291 14.0545 174.915 14.0298 175.491 13.9805C176.083 13.9146 176.627 13.8241 177.123 13.7089V16.0047C177.315 15.5603 177.571 15.1571 177.891 14.7951C178.211 14.433 178.579 14.1533 178.995 13.9558C179.411 13.7418 179.875 13.6349 180.387 13.6349Z" fill="#E4EFFF"/>
<path fill-rule="evenodd" clip-rule="evenodd" d="M28.6875 6.49292H5.3125C4.74891 6.49292 4.20841 6.7232 3.8099 7.1331C3.41138 7.543 3.1875 8.09894 3.1875 8.67863V27.2572C3.1875 27.8369 3.41138 28.3929 3.8099 28.8027C4.20841 29.2126 4.74891 29.4429 5.3125 29.4429H7.4375H9.5625H24.4375H26.5625H28.6875C29.2511 29.4429 29.7916 29.2126 30.1901 28.8027C30.5886 28.3929 30.8125 27.8369 30.8125 27.2572V8.67863C30.8125 8.09894 30.5886 7.543 30.1901 7.1331C29.7916 6.7232 29.2511 6.49292 28.6875 6.49292ZM23.7854 19.6072H27.625C27.9068 19.6072 28.177 19.4921 28.3763 19.2871C28.5756 19.0821 28.6875 18.8042 28.6875 18.5143C28.6875 18.2245 28.5756 17.9466 28.3763 17.7416C28.177 17.5366 27.9068 17.4215 27.625 17.4215H23.7854C23.5242 16.2426 22.8499 15.2041 21.8914 14.5042C20.9328 13.8043 19.7572 13.4921 18.5891 13.6273C17.421 13.7626 16.3422 14.3356 15.5588 15.2371C14.7755 16.1386 14.3424 17.3053 14.3424 18.5143C14.3424 19.7234 14.7755 20.8901 15.5588 21.7916C16.3422 22.6931 17.421 23.2661 18.5891 23.4014C19.7572 23.5366 20.9328 23.2244 21.8914 22.5245C22.8499 21.8246 23.5242 20.7861 23.7854 19.6072Z" fill="#E4EFFF"/>
<path fill-rule="evenodd" clip-rule="evenodd" d="M21.3336 20.0322C21.6255 19.5829 21.7813 19.0547 21.7812 18.5143C21.7812 18.1556 21.7125 17.8003 21.5791 17.4688C21.4456 17.1373 21.2499 16.8361 21.0033 16.5824C20.7566 16.3287 20.4638 16.1274 20.1415 15.9901C19.8192 15.8529 19.4738 15.7822 19.125 15.7822C18.5996 15.7822 18.0861 15.9424 17.6493 16.2426C17.2124 16.5429 16.872 16.9695 16.6709 17.4688C16.4699 17.968 16.4173 18.5173 16.5198 19.0473C16.6223 19.5773 16.8753 20.0642 17.2467 20.4463C17.6182 20.8283 18.0915 21.0885 18.6068 21.194C19.1221 21.2994 19.6561 21.2453 20.1415 21.0385C20.6269 20.8317 21.0417 20.4816 21.3336 20.0322Z" fill="#E4EFFF"/>
</svg>
